<svg width="146" height="67" fill="none" xmlns="http://www.w3.org/2000/svg"><path d="M78.275 37.703h-1.647v-2.375h-7.05v-8.742h1.862v7.145h3.72v-7.145h1.869v7.145h1.246v3.972zm-1.112 11.05h-2.032l-.655-2.004H71.3l-.644 2.003h-2.02l3.199-8.742h2.19l3.138 8.742zm-3.126-3.443l-.994-3.03a3.445 3.445 0 01-.135-.763h-.05a3.15 3.15 0 01-.154.74l-.998 3.053h2.33zm10.859-9.982H79.72v-8.742h4.972v1.524h-3.11v2.06h2.89v1.517h-2.89v2.117h3.314v1.524zm8.884 0h-1.863v-3.606h-3.725v3.606h-1.863v-8.742h1.863v3.527h3.725v-3.527h1.863v8.742zm8.075-7.218h-2.494v7.218h-1.867V28.11h-2.489v-1.524h6.85v1.524zm3.059 4.17v3.048h-1.862v-8.742h3.009c2.174 0 3.261.92 3.261 2.764 0 .896-.328 1.615-.984 2.154-.657.54-1.478.8-2.464.776h-.96zm0-4.25v2.823h.808c1.096 0 1.643-.476 1.643-1.43 0-.928-.544-1.392-1.626-1.392h-.825zM85.72 48.753h-1.862v-3.606h-3.726v3.606h-1.863V40.01h1.863v3.528h3.726V40.01h1.862v8.741zm9.628 0h-2.032l-.655-2.003h-3.177l-.643 2.003h-2.02l3.199-8.742h2.19l3.138 8.742zm-3.126-3.442l-.994-3.03a3.445 3.445 0 01-.135-.763h-.05a3.156 3.156 0 01-.154.74l-.998 3.053h2.33zm11.236 3.442h-1.862v-7.18h-1.823c-.454 3.252-.878 5.283-1.27 6.092-.39.807-1.018 1.212-1.885 1.212-.372 0-.719-.056-1.038-.168v-1.502c.237.086.445.13.622.13a.64.64 0 00.36-.111c.114-.074.231-.226.352-.459.124-.233.27-.71.444-1.433.173-.722.333-1.574.48-2.552l.423-2.77h5.197v8.741zm9.803 0h-1.766V43.78c0-.516.019-.98.062-1.394h-.041c-.059.133-.198.37-.416.71l-3.708 5.656h-1.903V40.01h1.766v4.984c0 .601-.015 1.004-.05 1.208h.023l4.013-6.191h2.02v8.741zm1.49-1.98c.693.466 1.481.7 2.365.7 1.125 0 1.688-.415 1.688-1.243 0-.838-.619-1.258-1.857-1.258h-1.1v-1.404h1.044c1.105 0 1.658-.395 1.658-1.187 0-.722-.468-1.083-1.406-1.083-.661 0-1.362.208-2.098.626v-1.547c.73-.34 1.545-.512 2.449-.512.869 0 1.583.19 2.142.576.558.383.838.925.838 1.624 0 1.121-.574 1.828-1.721 2.117v.023c.602.089 1.083.318 1.441.686.361.366.54.822.54 1.368 0 .853-.306 1.508-.917 1.965-.613.454-1.472.681-2.583.681-1.083 0-1.911-.16-2.483-.48v-1.652zm15.085 1.98h-2.032l-.655-2.003h-3.177l-.643 2.003h-2.021l3.2-8.742h2.19l3.138 8.742zm-3.126-3.442l-.995-3.03a3.487 3.487 0 01-.134-.763h-.05a3.198 3.198 0 01-.155.74l-.997 3.053h2.331z" fill="#434242"/><path d="M68.872 56.308a2.29 2.29 0 001.207.317c.84 0 1.314-.411 1.42-1.232h-1.902v-.825h1.909c-.142-.843-.615-1.263-1.42-1.263-.448 0-.852.096-1.214.288v-.941c.373-.132.81-.197 1.311-.197.752 0 1.347.224 1.785.672.438.449.657 1.068.657 1.858 0 .752-.217 1.356-.65 1.81-.434.456-1.017.682-1.748.682-.55 0-1.002-.086-1.355-.26v-.91zm7.882 1.085h-1.228l-1.154-1.715h-.013v1.715h-1.012v-3.467h1.012v1.602h.013l1.08-1.602h1.208l-1.285 1.636 1.38 1.831zm3.02-.129c-.243.143-.587.213-1.034.213-.53 0-.957-.16-1.284-.482-.325-.322-.489-.74-.489-1.251 0-.59.176-1.054.527-1.394.352-.34.82-.509 1.405-.509.395 0 .688.053.878.163v.869a1.254 1.254 0 00-.76-.255c-.308 0-.557.094-.743.282-.187.189-.281.447-.281.775 0 .317.088.568.266.75.178.184.42.276.725.276.27 0 .532-.087.79-.258v.822zm4.007.129h-1.015v-2.744h-1.261v2.744h-1.012v-3.467h3.288v3.467zm.72-1.718c0-.571.172-1.02.513-1.345.343-.326.802-.489 1.379-.489.557 0 1 .16 1.329.48.328.322.492.753.492 1.294 0 .569-.168 1.021-.505 1.357-.336.337-.792.505-1.367.505-.564 0-1.012-.161-1.343-.484-.332-.322-.498-.762-.498-1.318zm1.026-.012c0 .69.282 1.038.846 1.038.542 0 .813-.356.813-1.067 0-.677-.273-1.016-.819-1.016-.265 0-.47.091-.619.273-.147.182-.221.439-.221.772zm4.415 1.313v2.013h-1.013v-5.063h1.013v.53h.012c.266-.41.64-.615 1.125-.615.442 0 .787.154 1.035.462.25.309.373.728.373 1.259 0 .579-.144 1.043-.432 1.392-.289.35-.667.523-1.135.523-.424 0-.746-.166-.966-.501h-.012zm-.017-1.117a.9.9 0 00.202.606.653.653 0 00.52.236c.252 0 .45-.099.59-.296.142-.196.213-.474.213-.833 0-.636-.248-.954-.743-.954a.697.697 0 00-.563.263c-.146.176-.219.402-.219.678v.3zm5.83-1.16h-.94v2.694h-1.017v-2.694h-.95v-.773h2.907v.773zm3.859 2.694h-1.016v-1.464h-1.26v1.464h-1.013v-3.467h1.013v1.298h1.26v-1.298h1.016v3.467zm.72-1.718c0-.571.171-1.02.513-1.345.342-.326.801-.489 1.378-.489.558 0 1.001.16 1.329.48.329.322.493.753.493 1.294 0 .569-.168 1.021-.505 1.357-.336.337-.792.505-1.367.505-.564 0-1.013-.161-1.343-.484-.332-.322-.498-.762-.498-1.318zm1.025-.012c0 .69.283 1.038.847 1.038.541 0 .812-.356.812-1.067 0-.677-.273-1.016-.818-1.016-.266 0-.471.091-.619.273-.148.182-.222.439-.222.772zm5.278.229h-1.854v-.715h1.854v.715zm5.345 1.501h-.981v-2.762c0-.287.011-.545.034-.775h-.022a3.76 3.76 0 01-.231.395l-2.061 3.142h-1.057v-4.857h.982v2.77c0 .333-.009.557-.028.67h.012l2.23-3.44h1.122v4.857zm5.437 0h-.947v-2.718a5.798 5.798 0 01-.185.64l-.696 2.078h-.89l-.699-2.078c-.101-.3-.164-.51-.188-.634v2.712h-.797v-3.467h1.33l.683 2.01c.104.309.164.516.179.623a5.97 5.97 0 01.184-.615l.674-2.018h1.352v3.467zm4.215 0h-1.016v-2.744h-1.261v2.744h-1.012v-3.467h3.289v3.467zm.72-1.718c0-.571.171-1.02.512-1.345.343-.326.802-.489 1.379-.489.557 0 1.001.16 1.329.48.329.322.492.753.492 1.294 0 .569-.168 1.021-.505 1.357-.336.337-.792.505-1.366.505-.564 0-1.013-.161-1.343-.484-.332-.322-.498-.762-.498-1.318zm1.025-.012c0 .69.283 1.038.847 1.038.541 0 .812-.356.812-1.067 0-.677-.273-1.016-.819-1.016-.265 0-.471.091-.618.273-.148.182-.222.439-.222.772zm4.415 1.313v2.013h-1.013v-5.063h1.013v.53h.013c.265-.41.64-.615 1.124-.615.442 0 .787.154 1.035.462.25.309.374.728.374 1.259 0 .579-.145 1.043-.432 1.392-.29.35-.667.523-1.136.523-.424 0-.746-.166-.965-.501h-.013zm-.016-1.117c0 .248.067.449.201.606a.653.653 0 00.52.236.684.684 0 00.591-.296c.141-.196.212-.474.212-.833 0-.636-.247-.954-.743-.954a.698.698 0 00-.563.263c-.146.176-.218.402-.218.678v.3zm5.829-1.16h-.941v2.694h-1.016v-2.694h-.95v-.773h2.907v.773zm3.859 2.694h-1.015v-1.464h-1.261v1.464h-1.012v-3.467h1.012v1.298h1.261v-1.298h1.015v3.467zm.72-1.718c0-.571.172-1.02.513-1.345.343-.326.802-.489 1.379-.489.557 0 1 .16 1.329.48.328.322.492.753.492 1.294 0 .569-.168 1.021-.505 1.357-.336.337-.792.505-1.367.505-.564 0-1.012-.161-1.343-.484-.332-.322-.498-.762-.498-1.318zm1.026-.012c0 .69.282 1.038.846 1.038.542 0 .813-.356.813-1.067 0-.677-.273-1.016-.819-1.016-.265 0-.471.091-.619.273-.147.182-.221.439-.221.772zm6.788 1.73h-.919v-2.327a4.164 4.164 0 01-.278.486l-1.227 1.841h-.962v-3.467h.925v2.257c.079-.159.155-.297.229-.414L145 53.925h1v3.467zm-.602-5.032c-.031.316-.148.564-.349.745-.203.18-.46.27-.776.27-.314 0-.575-.091-.781-.277a.998.998 0 01-.329-.738h.58c.033.307.213.46.538.46.314 0 .493-.153.537-.46h.58zM72.594 64.676c-.353.173-.814.26-1.382.26-.733 0-1.313-.219-1.743-.658-.429-.437-.644-1.02-.644-1.75 0-.768.24-1.395.72-1.883s1.098-.732 1.857-.732c.475 0 .872.061 1.192.185v1a2.167 2.167 0 00-1.116-.288c-.475 0-.854.15-1.139.454-.283.304-.425.7-.425 1.189 0 .476.134.86.404 1.15.27.29.635.436 1.094.436.433 0 .827-.104 1.182-.314v.95zm3.308-2.519h-.94v2.694h-1.017v-2.694h-.95v-.773h2.907v.773zm.655-.564c.156-.087.366-.158.628-.213a3.38 3.38 0 01.674-.081c.97 0 1.454.486 1.454 1.458v2.094h-.962v-.505h-.013c-.236.394-.582.59-1.038.59-.328 0-.59-.094-.789-.28-.197-.188-.296-.443-.296-.765 0-.664.397-1.05 1.189-1.159l.952-.13c0-.403-.21-.604-.63-.604a2.03 2.03 0 00-1.169.376v-.78zm1.144 1.687c-.366.048-.549.213-.549.495a.4.4 0 00.134.314.52.52 0 00.358.119.661.661 0 00.512-.22.775.775 0 00.2-.544v-.249l-.655.085zm5.03-1.123h-.94v2.694h-1.017v-2.694h-.95v-.773h2.907v.773zm3.957 2.694h-.92v-2.326a4.032 4.032 0 01-.278.485l-1.226 1.841h-.962v-3.467h.924v2.257a4.98 4.98 0 01.23-.414l1.231-1.843h1v3.467zm3.53-.128c-.243.142-.587.213-1.035.213-.53 0-.956-.16-1.283-.483-.325-.322-.489-.74-.489-1.251 0-.59.176-1.054.527-1.393.352-.34.82-.51 1.405-.51.395 0 .688.053.878.163v.869a1.255 1.255 0 00-.76-.255c-.308 0-.557.094-.743.282-.187.189-.282.447-.282.775 0 .317.09.567.267.75.178.184.42.276.725.276.27 0 .533-.087.79-.258v.822zm3.268-2.566h-.941v2.694h-1.017v-2.694h-.949v-.773h2.907v.773zm3.956 2.694h-.919v-2.326a4.032 4.032 0 01-.278.485l-1.227 1.841h-.962v-3.467h.925v2.257a4.98 4.98 0 01.229-.414l1.232-1.843h1v3.467zm4.339 0h-1.229l-1.153-1.715h-.013v1.715h-1.013v-3.467h1.013v1.602h.013l1.081-1.602h1.207l-1.286 1.636 1.38 1.831zm3.807 0h-.92v-2.326a3.889 3.889 0 01-.278.485l-1.226 1.841h-.962v-3.467h.924v2.257a5.13 5.13 0 01.229-.414l1.232-1.843h1.001v3.467z" fill="url(#paint0_linear_523_839)"/><path fill-rule="evenodd" clip-rule="evenodd" d="M17.436 11.722c12.553-9.756 29.881-8.043 39.98 4.316l3.735-3.367c-.111-.136-.221-.271-.335-.405l-1.491-1.655c-.18-.187-.361-.372-.546-.555C46.367-2.255 26.137-2.764 13.153 8.622l-.66.596c-.413.383-.818.777-1.215 1.185-12.79 13.143-13.018 34.181.062 47.17l3.669-3.307a27.708 27.708 0 01-2.2-2.51c-9.606-12.4-7.906-30.294 4.627-40.035z" fill="#D9DADA"/><path fill-rule="evenodd" clip-rule="evenodd" d="M15.829 14.496c12.552-9.756 29.88-8.042 39.98 4.316l3.734-3.367c-.111-.135-.221-.27-.334-.405l-1.492-1.654a28.53 28.53 0 00-.546-.555C44.76.52 24.53.01 11.546 11.397l-.661.595a33.87 33.87 0 00-1.215 1.185c-12.79 13.144-13.018 34.182.063 47.17L13.4 57.04a27.71 27.71 0 01-2.2-2.51c-9.606-12.4-7.906-30.293 4.627-40.034z" fill="url(#paint1_linear_523_839)"/><path fill-rule="evenodd" clip-rule="evenodd" d="M59.872 63.731c-2.888 0-5.25-2.363-5.25-5.25V14.977c0-2.888 2.362-5.25 5.25-5.25s5.251 2.362 5.251 5.25V58.48c0 2.888-2.363 5.251-5.25 5.251zM45.19 63.51c-2.888 0-5.251-2.364-5.251-5.252V23.155c0-2.888 2.363-5.25 5.25-5.25h.001c2.888 0 5.251 2.362 5.251 5.25v35.103c0 2.888-2.363 5.251-5.251 5.251zm-14.114-.4c-2.889 0-5.252-2.364-5.252-5.252V31.243c0-2.888 2.363-5.25 5.251-5.25 2.889 0 5.252 2.362 5.252 5.25v26.615c0 2.888-2.363 5.251-5.251 5.251zm-13.883.23c-2.888 0-5.251-2.363-5.251-5.251V39.776c0-2.889 2.363-5.252 5.25-5.252h.001c2.888 0 5.251 2.364 5.251 5.252v18.313c0 2.888-2.363 5.25-5.251 5.25z" fill="#D9DADA"/><path fill-rule="evenodd" clip-rule="evenodd" d="M57.917 66.842c-2.888 0-5.251-2.363-5.251-5.25V18.088c0-2.888 2.363-5.25 5.25-5.25h.001c2.888 0 5.251 2.362 5.251 5.25V61.59c0 2.888-2.363 5.251-5.25 5.251z" fill="url(#paint2_linear_523_839)"/><path fill-rule="evenodd" clip-rule="evenodd" d="M43.235 66.62c-2.888 0-5.251-2.363-5.251-5.251V26.266c0-2.888 2.363-5.251 5.25-5.251 2.89 0 5.252 2.363 5.252 5.251v35.103c0 2.888-2.363 5.251-5.251 5.251z" fill="url(#paint3_linear_523_839)"/><path fill-rule="evenodd" clip-rule="evenodd" d="M29.12 66.22c-2.888 0-5.251-2.363-5.251-5.251V34.354c0-2.888 2.363-5.25 5.251-5.25 2.888 0 5.251 2.362 5.251 5.25V60.97c0 2.888-2.363 5.251-5.25 5.251z" fill="url(#paint4_linear_523_839)"/><path fill-rule="evenodd" clip-rule="evenodd" d="M15.238 66.206c-2.888 0-5.251-2.363-5.251-5.25v-18.07c0-2.888 2.363-5.25 5.25-5.25 2.889 0 5.252 2.362 5.252 5.25v18.07c0 2.887-2.363 5.25-5.251 5.25z" fill="url(#paint5_linear_523_839)"/><defs><linearGradient id="paint0_linear_523_839" x1="107.413" y1="52.361" x2="107.413" y2="64.936" gradientUnits="userSpaceOnUse"><stop stop-color="#1EA13F"/><stop offset="1" stop-color="#A2C722"/></linearGradient><linearGradient id="paint1_linear_523_839" x1="29.771" y1="3.212" x2="29.771" y2="60.347" gradientUnits="userSpaceOnUse"><stop stop-color="#1EA13F"/><stop offset="1" stop-color="#A2C722"/></linearGradient><linearGradient id="paint2_linear_523_839" x1="57.917" y1="12.838" x2="57.917" y2="66.842" gradientUnits="userSpaceOnUse"><stop stop-color="#1EA13F"/><stop offset="1" stop-color="#A2C722"/></linearGradient><linearGradient id="paint3_linear_523_839" x1="43.235" y1="21.015" x2="43.235" y2="66.62" gradientUnits="userSpaceOnUse"><stop stop-color="#1EA13F"/><stop offset="1" stop-color="#A2C722"/></linearGradient><linearGradient id="paint4_linear_523_839" x1="29.12" y1="29.103" x2="29.12" y2="66.22" gradientUnits="userSpaceOnUse"><stop stop-color="#1EA13F"/><stop offset="1" stop-color="#A2C722"/></linearGradient><linearGradient id="paint5_linear_523_839" x1="15.238" y1="37.635" x2="15.238" y2="66.206" gradientUnits="userSpaceOnUse"><stop stop-color="#1EA13F"/><stop offset="1" stop-color="#A2C722"/></linearGradient></defs></svg>