<svg width="72" height="72" fill="none" xmlns="http://www.w3.org/2000/svg"><circle cx="36" cy="36" r="36" fill="url(#paint0_linear_511_805)"/><g clip-path="url(#clip0_511_805)" fill="#fff"><path d="M48.537 19.8h6.3l-.3 1.8 4.8.3-9 28.5h-1.8V19.8z" fill-opacity=".3"/><path fill-rule="evenodd" clip-rule="evenodd" d="M41.192 17.438a.696.696 0 00-.688.785.658.658 0 00.688.59h6.678v37.222H18.014v-3.142a.658.658 0 00-.59-.688.668.668 0 00-.687.688v3.732a.668.668 0 00.687.687h31.134c.295 0 .491-.294.59-.393l6.482-21.116c.098-.49-.099-.785-.394-.883h-.196a.736.736 0 00-.687.392l-3.83 12.375 4.222-25.339h3.635l-3.241 10.607a.668.668 0 00.392.786h.295a.462.462 0 00.49-.491l3.537-11.393c.196-.098.196-.294 0-.491a.54.54 0 00-.491-.295H55.04l.295-1.178c0-.197 0-.393-.196-.491a.54.54 0 00-.492-.197h-5.401v-.982a.756.756 0 00-.688-.785h-7.366zm12.67 3.044l-4.616 28.384V20.482h4.615z"/><path fill-rule="evenodd" clip-rule="evenodd" d="M17.62 14.688a.668.668 0 00-.687.687V50.34a.658.658 0 00.688.59.64.64 0 00.589-.59V15.964h7.366l2.651 2.75c.197.099.295.197.491.197h9.92a.667.667 0 00.688-.688.737.737 0 00-.688-.589h-9.625l-2.652-2.75c-.196-.098-.294-.196-.49-.196h-8.25z"/><path fill-rule="evenodd" clip-rule="evenodd" d="M22.924 25.392a.667.667 0 00-.687.688v2.946a.67.67 0 00.687.688h2.946a.667.667 0 00.688-.688V26.08a.667.667 0 00-.688-.688h-2.946zm2.357 1.277v1.67h-1.768v-1.67h1.768zm3.732 1.769c-.393 0-.59.295-.59.687a.521.521 0 00.59.59h13.848a.572.572 0 00.59-.59.658.658 0 00-.59-.687H29.013zm.001-2.161c-.393 0-.59.294-.59.687 0 .393.197.688.59.688h3.339a.688.688 0 000-1.375h-3.34zm-6.09 9.035a.659.659 0 00-.687.59v3.044a.67.67 0 00.687.688h2.946a.667.667 0 00.688-.688v-3.044a.658.658 0 00-.688-.59h-2.946zm2.357 1.375v1.67h-1.768v-1.67h1.768zm3.732 1.768a.52.52 0 00-.59.59c0 .392.197.687.59.687h13.848a.658.658 0 00.59-.688.57.57 0 00-.59-.589H29.013zm0-2.161c-.393 0-.59.295-.59.688a.521.521 0 00.59.59h3.34c.392 0 .687-.197.687-.59a.67.67 0 00-.688-.688h-3.339zm-6.089 8.937a.667.667 0 00-.687.688v2.946a.67.67 0 00.687.688h2.946a.667.667 0 00.688-.688V45.92a.666.666 0 00-.688-.688h-2.946zm2.357 1.277v1.768h-1.768v-1.768h1.768zm3.733 1.769c-.393 0-.59.294-.59.687 0 .393.197.688.59.688h13.848a.697.697 0 000-1.375H29.014zm0-2.162c-.393 0-.59.295-.59.688 0 .393.197.687.59.687h3.339a.688.688 0 000-1.375h-3.34z"/></g><defs><linearGradient id="paint0_linear_511_805" x1="36" y1="0" x2="36" y2="72" gradientUnits="userSpaceOnUse"><stop stop-color="#1EA13F"/><stop offset="1" stop-color="#A2C722"/></linearGradient><clipPath id="clip0_511_805"><path fill="#fff" transform="translate(12 12)" d="M0 0h48v48H0z"/></clipPath></defs></svg>