<svg width="114" height="150" fill="none" xmlns="http://www.w3.org/2000/svg"><path fill-rule="evenodd" clip-rule="evenodd" d="M20.437 0h50.15l42.504 44.303v86.169c0 10.795-8.733 19.528-19.49 19.528H20.436C9.643 150 .91 141.267.91 130.472V19.528C.91 8.733 9.642 0 20.437 0z" fill="#E5252A"/><g clip-path="url(#clip0_50_489)" fill="#fff"><path d="M93.456 29.28a.542.542 0 00-.545.545v4.951a2.443 2.443 0 01-2.44 2.44H78.529a2.443 2.443 0 01-2.44-2.44v-5.032a.542.542 0 00-.544-.544.542.542 0 00-.544.544v5.032a3.532 3.532 0 003.528 3.528h11.944A3.532 3.532 0 0094 34.776v-4.951a.545.545 0 00-.544-.545z"/><path d="M84.117 33.982a.548.548 0 00.383.161.53.53 0 00.383-.161l3.46-3.46a.543.543 0 000-.77.543.543 0 00-.77 0l-2.529 2.532V21.24a.542.542 0 00-.544-.544.542.542 0 00-.544.544v11.044l-2.533-2.532a.543.543 0 00-.77 0 .543.543 0 000 .77l3.464 3.46z"/></g><path opacity=".302" fill-rule="evenodd" clip-rule="evenodd" d="M70.55 0v43.965h42.541L70.549 0z" fill="#fff"/><path d="M22.61 111.919V84.52h11.657c2.887 0 5.173.787 6.897 2.4 1.724 1.573 2.586 3.71 2.586 6.37 0 2.662-.862 4.798-2.586 6.373-1.724 1.611-4.01 2.399-6.897 2.399H29.62v9.857h-7.01zm7.01-15.817h3.86c1.05 0 1.875-.225 2.437-.75.562-.487.862-1.161.862-2.06 0-.9-.3-1.575-.862-2.062-.562-.525-1.387-.75-2.437-.75h-3.86v5.622zm17.016 15.817V84.52h9.708c1.911 0 3.71.263 5.397.825 1.687.562 3.224 1.35 4.573 2.436 1.35 1.05 2.436 2.474 3.223 4.273.75 1.8 1.162 3.86 1.162 6.184 0 2.287-.412 4.348-1.162 6.147-.787 1.799-1.874 3.224-3.223 4.273-1.35 1.087-2.886 1.874-4.573 2.436-1.686.563-3.486.825-5.397.825h-9.708zm6.86-5.959h2.023c1.087 0 2.1-.113 3.036-.375a9.126 9.126 0 002.587-1.237c.787-.562 1.424-1.349 1.874-2.399.45-1.049.674-2.286.674-3.71 0-1.462-.225-2.7-.674-3.749-.45-1.049-1.087-1.836-1.874-2.398a9.099 9.099 0 00-2.587-1.237c-.937-.263-1.949-.375-3.036-.375h-2.024v15.48zm20.727 5.959V84.52h19.49v5.96H81.232v4.385h9.97v5.922h-9.97v11.132h-7.01z" fill="#fff"/><defs><clipPath id="clip0_50_489"><path fill="#fff" transform="translate(75 20)" d="M0 0h19v19H0z"/></clipPath></defs></svg>