<svg width="24" height="24" fill="none" xmlns="http://www.w3.org/2000/svg"><path fill-rule="evenodd" clip-rule="evenodd" d="M11.993 23.794h-.005c-1.99 0-3.947-.5-5.684-1.448L0 24l1.687-6.163A11.871 11.871 0 01.1 11.892C.102 5.335 5.437 0 11.992 0a11.816 11.816 0 018.413 3.488 11.82 11.82 0 013.48 8.413c-.003 6.556-5.335 11.89-11.892 11.893zm-5.396-3.6l.361.214a9.87 9.87 0 005.031 1.378h.004c5.448 0 9.883-4.435 9.885-9.885a9.825 9.825 0 00-2.893-6.993 9.817 9.817 0 00-6.988-2.899c-5.452 0-9.886 4.434-9.889 9.884a9.86 9.86 0 001.512 5.26l.235.374-.999 3.648 3.741-.982zm11.387-5.464c-.074-.124-.272-.198-.569-.347-.297-.149-1.758-.868-2.03-.967-.273-.099-.471-.149-.67.149-.197.297-.767.967-.94 1.165-.173.198-.347.223-.644.074-.297-.148-1.254-.462-2.39-1.475-.883-.787-1.48-1.76-1.653-2.058-.173-.298-.018-.458.13-.606.134-.134.298-.348.446-.521.149-.174.199-.298.298-.496.099-.198.05-.372-.025-.52-.074-.15-.669-1.612-.916-2.207-.242-.58-.487-.5-.669-.51-.173-.009-.371-.01-.57-.01-.198 0-.52.074-.792.371-.272.298-1.04 1.017-1.04 2.48 0 1.462 1.065 2.875 1.213 3.073.149.199 2.096 3.2 5.077 4.487.709.307 1.262.49 1.694.626.712.227 1.36.195 1.871.118.571-.085 1.759-.719 2.006-1.413.248-.694.248-1.289.174-1.413z" fill="#fff"/></svg>