<svg width="114" height="150" fill="none" xmlns="http://www.w3.org/2000/svg"><path fill-rule="evenodd" clip-rule="evenodd" d="M20.403 0h50.201l42.482 44.343v86.113c0 10.785-8.705 19.544-19.49 19.544H20.404c-10.731 0-19.49-8.759-19.49-19.544V19.489C.914 8.759 9.674 0 20.404 0z" fill="#00733B"/><path opacity=".302" fill-rule="evenodd" clip-rule="evenodd" d="M70.55 0v43.96h42.536L70.549 0z" fill="#fff"/><path d="M47.556 109.215h-7.28l-4.982-8.375-4.982 8.375h-7.336l8.65-14.562-7.61-12.646h7.336l3.942 6.57 3.887-6.57h7.335l-7.555 12.701 8.596 14.507zm2.574 0V82.007h6.952v21.296h11.825v5.912H50.13zm30.273.329c-2.737 0-5.146-.876-7.226-2.573-2.026-1.643-3.175-3.723-3.34-6.186l5.968-1.752c.164 1.314.711 2.463 1.642 3.339.986.876 2.08 1.314 3.285 1.314.985 0 1.806-.219 2.463-.657.602-.438.93-1.04.93-1.751 0-.603-.273-1.095-.766-1.533-.492-.384-1.15-.712-1.916-.986a25.306 25.306 0 00-2.627-.766c-.986-.274-1.971-.602-2.902-1.04a10.212 10.212 0 01-2.628-1.478c-.82-.548-1.423-1.369-1.916-2.41-.493-.985-.766-2.189-.766-3.558 0-2.244.93-4.105 2.847-5.584 1.916-1.532 4.215-2.244 6.897-2.244 2.683 0 5.037.657 7.008 1.916 1.97 1.314 3.23 3.011 3.722 5.091l-6.24 2.628c-.274-1.15-.822-2.08-1.588-2.792-.767-.657-1.752-1.04-2.902-1.04-.876 0-1.533.219-2.08.548-.493.328-.712.82-.712 1.423 0 .547.329 1.04.986 1.423.657.329 1.533.602 2.518.767.985.164 2.08.438 3.23.82 1.204.439 2.244.877 3.284 1.479.986.548 1.807 1.478 2.464 2.683.712 1.259 1.04 2.737 1.04 4.434 0 2.518-.985 4.598-2.956 6.131-1.971 1.533-4.543 2.354-7.719 2.354z" fill="#fff"/><g clip-path="url(#clip0_50_501)" fill="#fff"><path d="M93.456 29.28a.542.542 0 00-.545.545v4.951a2.443 2.443 0 01-2.44 2.44H78.529a2.443 2.443 0 01-2.44-2.44v-5.032a.542.542 0 00-.544-.544.542.542 0 00-.544.544v5.032a3.532 3.532 0 003.528 3.528h11.944A3.532 3.532 0 0094 34.776v-4.951a.545.545 0 00-.544-.545z"/><path d="M84.117 33.982a.548.548 0 00.383.161.53.53 0 00.383-.161l3.46-3.46a.543.543 0 000-.77.543.543 0 00-.77 0l-2.529 2.532V21.24a.542.542 0 00-.544-.544.542.542 0 00-.544.544v11.044l-2.533-2.532a.543.543 0 00-.77 0 .543.543 0 000 .77l3.464 3.46z"/></g><defs><clipPath id="clip0_50_501"><path fill="#fff" transform="translate(75 20)" d="M0 0h19v19H0z"/></clipPath></defs></svg>